<svg width="308" height="124" viewBox="0 0 308 124" fill="none" xmlns="http://www.w3.org/2000/svg">
<rect x="0.5" y="0.5" width="307" height="123" rx="4.5" stroke="#7B61FF" stroke-dasharray="10 5"/>
<path fill-rule="evenodd" clip-rule="evenodd" d="M62.0001 28.3787L24.4395 65.9393L26.5608 68.0606L34.0001 60.6213V98H30.0001V101H95.0001V98H90.0001V60.6213L97.4395 68.0606L99.5608 65.9393L90.0001 56.3787V29H76.0001V42.3787L62.0001 28.3787ZM79.0001 45.3787L87.0001 53.3787V32H79.0001V45.3787ZM87.0001 57.6213L62.0001 32.6213L37.0001 57.6213V98H87.0001V57.6213ZM54 70V94H70V70H54ZM57 91V73H67V91H57ZM41 70H44V74H41V70ZM50 70H47V74H50V70ZM41 76H44V80H41V76ZM50 76H47V80H50V76ZM74 70H77V74H74V70ZM83 70H80V74H83V70ZM74 76H77V80H74V76ZM83 76H80V80H83V76ZM57 56C57 53.2386 59.2386 51 62 51C64.7614 51 67 53.2386 67 56C67 58.7614 64.7614 61 62 61C59.2386 61 57 58.7614 57 56ZM62 48C57.5817 48 54 51.5817 54 56C54 60.4183 57.5817 64 62 64C66.4183 64 70 60.4183 70 56C70 51.5817 66.4183 48 62 48Z" fill="black"/>
<path d="M186.9 77.7H176.3H131.6H121.1C118.8 77.7 117 79.6 117 82V85.5C117 87.9 118.9 89.7999 121.1 89.7999H122V90.9C122 96.4 126.3 101 131.6 101H176.2C181.5 101 185.8 96.5 185.8 90.9V89.7999H186.7C189 89.7999 190.8 87.9 190.8 85.5V82C191 79.7 189.1 77.7 186.9 77.7ZM183 90.9C183 94.8 180 97.9 176.3 97.9H131.6C127.9 97.9 124.9 94.7 124.9 90.9V89.7999H183V90.9ZM188.1 85.5C188.1 86.2 187.5 86.7999 186.9 86.7999H185.9H183H125H122H121C120.3 86.7999 119.8 86.2 119.8 85.5V82C119.8 81.3 120.4 80.7 121 80.7H124.7H131.6H176.2H183.1H186.8C187.5 80.7 188 81.3 188 82C188.1 82 188.1 85.5 188.1 85.5Z" fill="black"/>
<path d="M132.6 69.4001L138 73.5001L143.3 69.4001L148.6 73.5001L153.9 69.4001L159.3 73.5001L164.6 69.4001L169.9 73.5001L175.3 69.4001L180.6 73.5001L186.8 68.8001L185.1 66.3001L180.6 69.7001L175.3 65.6001L169.9 69.7001L164.6 65.6001L159.3 69.7001L153.9 65.6001L148.6 69.7001L143.3 65.6001L138 69.7001L132.6 65.6001L127.3 69.7001L122.8 66.3001L121.1 68.8001L127.3 73.5001L132.6 69.4001Z" fill="black"/>
<path d="M125 62.5H182.9H185.8C185.8 61.9 185.9 61.3 185.9 60.6C185.9 60.2 185.9 59.8 185.9 59.4C185.2 43.7 171.2 31 154 31C136.7 31 122.7 43.7 122 59.5C122 59.9 122 60.3 122 60.7C122 61.3 122 61.9 122.1 62.5H125ZM154 34C169.6 34 182.4 45.3 183 59.5H125C125.6 45.4 138.4 34 154 34Z" fill="black"/>
<path d="M154 48.3C155.049 48.3 155.9 47.4046 155.9 46.3C155.9 45.1955 155.049 44.3 154 44.3C152.951 44.3 152.1 45.1955 152.1 46.3C152.1 47.4046 152.951 48.3 154 48.3Z" fill="black"/>
<path d="M146.2 43.2C147.249 43.2 148.1 42.3045 148.1 41.2C148.1 40.0954 147.249 39.2 146.2 39.2C145.151 39.2 144.3 40.0954 144.3 41.2C144.3 42.3045 145.151 43.2 146.2 43.2Z" fill="black"/>
<path d="M161.7 43.2C162.749 43.2 163.6 42.3045 163.6 41.2C163.6 40.0954 162.749 39.2 161.7 39.2C160.651 39.2 159.8 40.0954 159.8 41.2C159.8 42.3045 160.651 43.2 161.7 43.2Z" fill="black"/>
<path d="M275.1 47.5H275H250.3C264.1 40.6 265.2 36.2 264.7 33.8C263.5 29.8 259 26.8 254.7 28.4C249.1 30.5 247.6 38.8 246.1 44.8C244.1 38.7 242.3 31 237.9 27.1C236.6 26 234.8 24.8 232.1 25.1C228.1 25.5 222.3 30.5 224.6 36.1C226.9 41.5 234.3 44.9 239.2 47.6H217.2H216.9C215.3 47.6 214 48.9 214 50.5V61.8C214 63.4 215.3 64.7 216.9 64.7H217.2V98V100.4V101H275V100.5V98V64.6H275.1C276.7 64.6 278 63.3 278 61.7V50.4C278 48.8 276.7 47.5 275.1 47.5ZM256.4 30.9C258.5 30.6 261.4 32.2 261.7 34.1C262.1 36.9 258.3 39.4 256.6 40.5C254.1 42.2 251.7 43.1 249.3 44.6C250.2 40.9 251.8 31.6 256.4 30.9ZM233.5 40.9C231.3 39.4 227 36.5 227.1 33.1C227.2 29.5 232.8 26.5 235.9 29.2C239.8 32.6 241.6 40.3 243 45.8C239.8 44.3 236.7 43 233.5 40.9ZM239.5 98H220.1V64.6H239.5V98ZM239.5 61.5H217V50.5H239.5V61.5ZM249.7 61.5V64.5V98H242.5V64.6V61.6V50.6H249.7V61.5ZM272 98H252.6V64.6H272V98ZM274.9 61.5H252.6V50.5H274.9V61.5Z" fill="black"/>
</svg>
