<svg width="113" height="60" viewBox="0 0 113 60" fill="none" xmlns="http://www.w3.org/2000/svg">
<rect x="0.5" y="0.5" width="112" height="59" rx="4.5" stroke="#7B61FF" stroke-dasharray="10 5"/>
<path fill-rule="evenodd" clip-rule="evenodd" d="M37.9498 23.948C38.1158 23.402 37.9498 23 37.1548 23H34.5298C33.8618 23 33.5538 23.347 33.3868 23.73C33.3868 23.73 32.0518 26.926 30.1608 29.002C29.5488 29.604 29.2708 29.795 28.9368 29.795C28.7698 29.795 28.5188 29.604 28.5188 29.057V23.948C28.5188 23.292 28.3348 23 27.7788 23H23.6508C23.2338 23 22.9828 23.304 22.9828 23.593C22.9828 24.214 23.9288 24.358 24.0258 26.106V29.904C24.0258 30.737 23.8728 30.888 23.5388 30.888C22.6488 30.888 20.4838 27.677 19.1988 24.003C18.9498 23.288 18.6978 23 18.0268 23H15.3998C14.6498 23 14.4998 23.347 14.4998 23.73C14.4998 24.412 15.3898 27.8 18.6448 32.281C20.8148 35.341 23.8698 37 26.6528 37C28.3218 37 28.5278 36.632 28.5278 35.997V33.684C28.5278 32.947 28.6858 32.8 29.2148 32.8C29.6048 32.8 30.2718 32.992 31.8298 34.467C33.6098 36.216 33.9028 37 34.9048 37H37.5298C38.2798 37 38.6558 36.632 38.4398 35.904C38.2018 35.18 37.3518 34.129 36.2248 32.882C35.6128 32.172 34.6948 31.407 34.4158 31.024C34.0268 30.533 34.1378 30.314 34.4158 29.877C34.4158 29.877 37.6158 25.451 37.9488 23.948H37.9498Z" fill="#83B3D3"/>
<path d="M65.2853 22.0993L49.3407 28.2478C48.2526 28.6848 48.2589 29.2918 49.1411 29.5625L53.2347 30.8395L62.7061 24.8637C63.1539 24.5912 63.5631 24.7378 63.2268 25.0364L55.5531 31.9619H55.5513L55.5531 31.9628L55.2707 36.1823C55.6844 36.1823 55.8669 35.9925 56.099 35.7686L58.0873 33.8351L62.2232 36.89C62.9858 37.31 63.5334 37.0941 63.7232 36.1841L66.4382 23.3889C66.7161 22.2746 66.0128 21.7701 65.2853 22.0993Z" fill="#83B3D3"/>
<path d="M95.1072 21.5H79.6744C77.8137 21.5 76.5002 23.0938 76.5002 24.9V34.9937C76.5002 36.9062 77.8137 38.5 79.6744 38.5H95.3261C96.9679 38.5 98.5002 36.9062 98.5002 35.1V24.9C98.2813 23.0938 96.9679 21.5 95.1072 21.5ZM84.1619 34.0375V25.9625L91.4953 30L84.1619 34.0375Z" fill="#83B3D3"/>
</svg>
