<svg width="296" height="20" viewBox="0 0 296 20" fill="none" xmlns="http://www.w3.org/2000/svg">
<path d="M17 9H11V3H9V9H3V11H9V17H11V11H17V9Z" fill="black"/>
<path d="M38.1117 9.46875L33.3617 5.21875C33.1117 4.96875 32.6117 4.96875 32.2367 5.21875C31.8617 5.46875 31.9867 5.96875 32.2367 6.21875L36.3617 9.96875L32.3617 13.7188C32.1117 13.9688 32.1117 14.4688 32.3617 14.7188C32.3617 14.8438 32.7367 14.9688 32.8617 14.9688C32.9867 14.9688 33.2367 14.8438 33.3617 14.7188L38.1117 10.4688C38.4867 10.2188 38.4867 9.71875 38.1117 9.46875Z" fill="black"/>
<path d="M53.3928 9V11H67.3928V9H53.3928Z" fill="black"/>
<path d="M94.8928 18.0083L91.1928 14.3287C92.1928 13.0359 92.8928 11.3453 92.8928 9.4558C92.8928 5.08011 89.2928 1.5 84.8928 1.5C80.4928 1.5 76.8928 5.17956 76.8928 9.55525C76.8928 13.9309 80.4928 17.511 84.8928 17.511C86.6928 17.511 88.3928 16.9144 89.7928 15.8204L93.4928 19.5L94.8928 18.0083ZM84.8928 15.5221C81.5928 15.5221 78.8928 12.837 78.8928 9.55525C78.8928 6.27348 81.5928 3.5884 84.8928 3.5884C88.1928 3.5884 90.8928 6.27348 90.8928 9.55525C90.8928 12.837 88.1928 15.5221 84.8928 15.5221Z" fill="black"/>
<path d="M110.293 19C109.993 19 109.693 18.9 109.493 18.6C104.093 12.5 102.793 11.1 102.493 10.7C101.793 9.8 101.393 8.6 101.393 7.4C101.393 4.4 103.793 2 106.893 2C108.193 2 109.393 2.5 110.393 3.3C111.393 2.5 112.693 2 113.893 2C116.893 2 119.393 4.4 119.393 7.4C119.393 8.7 118.893 9.9 118.093 10.8L111.093 18.7C110.893 18.9 110.693 19 110.293 19ZM104.293 9.5C104.593 9.9 107.793 13.5 110.393 16.4L116.593 9.4C117.093 8.9 117.293 8.2 117.293 7.4C117.293 5.6 115.793 4.1 113.993 4.1C112.993 4.1 111.993 4.6 111.293 5.4C110.993 5.7 110.693 5.8 110.393 5.8C110.093 5.8 109.793 5.6 109.593 5.4C108.893 4.6 107.893 4.1 106.893 4.1C105.093 4.1 103.593 5.6 103.593 7.4C103.493 8.3 103.893 9 104.293 9.5C104.193 9.5 104.193 9.5 104.293 9.5Z" fill="black"/>
<path d="M133.143 12C133.443 12 133.643 11.8 133.643 11.5C133.643 11.2 133.443 11 133.143 11C132.843 11 132.643 11.2 132.643 11.5C132.643 11.8 132.843 12 133.143 12Z" fill="black"/>
<path d="M142.393 4H140.393V2H139.393V4H131.393V2H130.393V4H128.393C127.793 4 127.393 4.4 127.393 5V16C127.393 16.5 127.793 17 128.393 17H142.393C142.893 17 143.393 16.5 143.393 16V5C143.393 4.4 142.893 4 142.393 4ZM142.393 16H128.393V9H142.393V16ZM128.393 8V5H130.393V7H131.393V5H139.393V7H140.393V5H142.393V8H128.393Z" fill="black"/>
<path d="M135.393 12C135.693 12 135.893 11.8 135.893 11.5C135.893 11.2 135.693 11 135.393 11C135.093 11 134.893 11.2 134.893 11.5C134.893 11.8 135.093 12 135.393 12Z" fill="black"/>
<path d="M137.643 12C137.943 12 138.143 11.8 138.143 11.5C138.143 11.2 137.943 11 137.643 11C137.343 11 137.143 11.2 137.143 11.5C137.143 11.8 137.343 12 137.643 12Z" fill="black"/>
<path d="M133.143 13C132.843 13 132.643 13.2 132.643 13.5C132.643 13.8 132.843 14 133.143 14C133.443 14 133.643 13.8 133.643 13.5C133.643 13.2 133.443 13 133.143 13Z" fill="black"/>
<path d="M130.893 12C131.193 12 131.393 11.8 131.393 11.5C131.393 11.2 131.193 11 130.893 11C130.593 11 130.393 11.2 130.393 11.5C130.393 11.8 130.593 12 130.893 12Z" fill="black"/>
<path d="M130.893 13C130.593 13 130.393 13.2 130.393 13.5C130.393 13.8 130.593 14 130.893 14C131.193 14 131.393 13.8 131.393 13.5C131.393 13.2 131.193 13 130.893 13Z" fill="black"/>
<path d="M135.393 13C135.093 13 134.893 13.2 134.893 13.5C134.893 13.8 135.093 14 135.393 14C135.693 14 135.893 13.8 135.893 13.5C135.893 13.2 135.693 13 135.393 13Z" fill="black"/>
<path d="M137.643 13C137.343 13 137.143 13.2 137.143 13.5C137.143 13.8 137.343 14 137.643 14C137.943 14 138.143 13.8 138.143 13.5C138.143 13.2 137.943 13 137.643 13Z" fill="black"/>
<path d="M139.893 12C140.193 12 140.393 11.8 140.393 11.5C140.393 11.2 140.193 11 139.893 11C139.593 11 139.393 11.2 139.393 11.5C139.393 11.8 139.593 12 139.893 12Z" fill="black"/>
<path d="M139.893 13C139.593 13 139.393 13.2 139.393 13.5C139.393 13.8 139.593 14 139.893 14C140.193 14 140.393 13.8 140.393 13.5C140.393 13.2 140.193 13 139.893 13Z" fill="black"/>
<path d="M167.693 4.3H152.993C152.693 4.3 152.393 4.5 152.393 4.8C152.393 5.1 152.693 5.4 152.993 5.4H154.693V17.4C154.693 17.7 154.993 18 155.293 18H165.493C165.793 18 166.093 17.7 166.093 17.4V5.4H167.793C168.093 5.4 168.393 5.1 168.393 4.8C168.393 4.5 167.993 4.3 167.693 4.3ZM164.893 16.8H155.793V5.4H164.893V16.8Z" fill="black"/>
<path d="M158.593 3.2H161.993C162.293 3.2 162.593 2.9 162.593 2.6C162.593 2.3 162.393 2 162.093 2H158.593C158.293 2 158.093 2.3 158.093 2.6C158.093 2.9 158.293 3.2 158.593 3.2Z" fill="black"/>
<path d="M158.593 14C158.893 14 159.193 13.7 159.193 13.4V7.7C159.193 7.4 158.893 7.1 158.593 7.1C158.293 7.1 157.993 7.4 157.993 7.7V13.4C158.093 13.7 158.293 14 158.593 14Z" fill="black"/>
<path d="M162.093 14C162.393 14 162.693 13.7 162.693 13.4V7.7C162.693 7.4 162.393 7.1 162.093 7.1C161.793 7.1 161.493 7.5 161.493 7.7V13.4C161.493 13.7 161.693 14 162.093 14Z" fill="black"/>
<path d="M192.393 4.29231L191.101 3L185.393 8.70769L179.685 3L178.393 4.29231L184.101 10L178.393 15.7077L179.685 17L185.393 11.2923L191.101 17L192.393 15.7077L186.685 10L192.393 4.29231Z" fill="black"/>
<path fill-rule="evenodd" clip-rule="evenodd" d="M204.612 7.34467C204.905 7.05178 205.38 7.05178 205.673 7.34467L210.393 12.0643L215.112 7.34467C215.405 7.05178 215.88 7.05178 216.173 7.34467C216.466 7.63756 216.466 8.11244 216.173 8.40533L210.923 13.6553C210.63 13.9482 210.155 13.9482 209.862 13.6553L204.612 8.40533C204.32 8.11244 204.32 7.63756 204.612 7.34467Z" fill="black"/>
<path d="M235.393 3L229.393 8.80006V15.0001H241.393V8.80006L235.393 3ZM240.393 14.0001H230.393V9.20005L235.393 4.4L240.393 9.20005V14.0001Z" fill="black"/>
<path d="M233.393 13.0001H234.393V10.5001H236.393V13.0001H237.393V9.50005H233.393V13.0001Z" fill="black"/>
<path d="M260.393 1L262.493 7.5H269.393L263.793 11.5L265.993 18L260.393 14L254.793 18L256.993 11.5L251.393 7.5H258.293L260.393 1Z" fill="black"/>
<path fill-rule="evenodd" clip-rule="evenodd" d="M284.393 4H286.393V6H284.393V4ZM286.393 16H284.393V7H286.393V16Z" fill="black"/>
</svg>
